<?xml version="1.0" encoding="UTF-8" standalone="no"?>
<!DOCTYPE svg PUBLIC "-//W3C//DTD SVG 1.1//EN" "http://www.w3.org/Graphics/SVG/1.1/DTD/svg11.dtd">
<svg width="100%" height="100%" viewBox="0 0 325 110" version="1.1" xmlns="http://www.w3.org/2000/svg" xmlns:xlink="http://www.w3.org/1999/xlink" xml:space="preserve" xmlns:serif="http://www.serif.com/" style="fill-rule:evenodd;clip-rule:evenodd;stroke-linejoin:round;stroke-miterlimit:2;">
    <g transform="matrix(1,0,0,1,-726,-5013)">
        <g id="Artboard2" transform="matrix(0.485417,0,0,0.634822,373.332,1830.55)">
            <rect x="726.526" y="5013.14" width="669.297" height="172.203" style="fill:none;"/>
            <g transform="matrix(0.853523,4.99273e-17,1.50177e-15,0.652646,-18676.9,2026.85)">
                <path d="M23171.7,4650.55C23176.7,4644.2 23183,4638.97 23190.3,4634.86C23200.7,4629.07 23212.4,4626.18 23225.6,4626.18C23238.3,4626.18 23249.9,4629.23 23260.2,4635.34C23270.6,4641.46 23278.7,4649.65 23284.7,4659.94C23290.6,4670.22 23293.5,4681.43 23293.5,4693.57C23293.5,4705.96 23290.5,4717.3 23284.5,4727.58C23278.5,4737.86 23270.4,4746 23260,4751.99C23249.6,4757.98 23238.2,4760.97 23225.6,4760.97C23212.6,4760.97 23200.9,4757.98 23190.4,4751.99C23180,4746 23171.9,4737.86 23166.1,4727.58C23160.3,4717.3 23157.4,4705.96 23157.4,4693.57C23157.4,4680.62 23160.3,4669.04 23166.1,4658.84C23167.4,4656.45 23168.9,4654.19 23170.5,4652.04L23148.3,4652.04L23148.3,4747.74C23148.3,4770 23142.6,4787.19 23131.2,4799.29C23119.8,4811.39 23103.2,4817.44 23081.3,4817.44C23060.6,4817.44 23042.9,4811.69 23028.3,4800.2L23044.7,4782.1C23050.6,4786.4 23056.5,4789.61 23062.5,4791.76C23068.4,4793.9 23075,4794.98 23082,4794.98C23094.9,4794.98 23104.9,4791.05 23112.1,4783.2C23119.4,4775.34 23123,4764.94 23123,4751.99L23123,4740.09C23117.4,4746.56 23110.3,4751.66 23101.7,4755.39C23093.1,4759.11 23084.5,4760.97 23076,4760.97C23064,4760.97 23053.2,4757.98 23043.6,4751.99C23034,4746 23026.5,4738.04 23021.2,4728.12C23015.8,4718.21 23013.1,4707.34 23013.1,4695.52C23013.1,4683.45 23015.9,4672.24 23021.5,4661.88C23027.2,4651.52 23034.9,4643.26 23044.7,4637.1C23054.4,4630.95 23065.3,4627.88 23077.2,4627.88C23085.8,4627.88 23093.8,4629.53 23101.2,4632.85C23108.6,4636.17 23115.9,4641.23 23123,4648.03L23123,4629.57L23171.7,4629.57L23171.7,4650.55ZM22756,4813.19C22749.9,4813.19 22744.8,4812.79 22740.6,4811.98L22740.6,4789.27C22744.6,4789.76 22749,4790 22753.6,4790C22760.4,4790 22765.3,4789.01 22768.4,4787.02C22771.4,4785.04 22773.5,4781.68 22774.7,4776.94C22775.9,4772.21 22776.5,4764.7 22776.5,4754.42L22776.5,4652.04L22756.3,4652.04L22756.3,4629.57L22802,4629.57L22802,4746.28C22802,4763.36 22801.1,4776.26 22799.4,4784.96C22797.6,4793.66 22793.4,4800.54 22786.9,4805.6C22780.3,4810.66 22770,4813.19 22756,4813.19ZM22947.6,4734.86L22947.6,4652.04L22921.6,4652.04L22921.6,4629.57L22967.8,4629.57L22967.8,4658.48C22973,4647.06 22979.4,4639.11 22987.1,4634.61C22994.8,4630.12 23005.8,4627.88 23020.1,4627.88L23025.9,4627.88L23025.9,4653.26L23020.3,4653.26C23006.5,4653.26 22996.3,4655.04 22989.5,4658.6C22982.8,4662.16 22978.3,4667.55 22976.1,4674.75C22974,4681.96 22972.9,4692.36 22972.9,4705.96L22972.9,4734.86L23001.1,4734.86L23001.1,4757.21L22894,4757.21L22894,4741.54C22881.7,4753.44 22868,4759.4 22852.9,4759.4C22844.9,4759.4 22837.6,4757.57 22831,4753.93C22824.3,4750.29 22819,4745.41 22815,4739.3C22811.1,4733.18 22809.1,4726.4 22809.1,4718.95C22809.1,4710.94 22811.3,4703.8 22815.7,4697.52C22820.1,4691.25 22826,4686.41 22833.5,4683.01C22841,4679.61 22848.5,4677.91 22856.1,4677.91C22868.7,4677.91 22880.5,4681.55 22891.5,4688.84L22891.5,4675.11C22891.5,4665.16 22889.3,4658.03 22885,4653.74C22880.8,4649.45 22873.7,4647.31 22863.9,4647.31C22857,4647.31 22851.3,4648.54 22846.6,4651.01C22842,4653.48 22838.1,4657.22 22835.1,4662.24L22810.7,4656.29C22816.2,4646.17 22823.6,4638.62 22833,4633.64C22842.4,4628.66 22853.5,4626.18 22866.4,4626.18C22883.8,4626.18 22896.4,4630.06 22904.5,4637.83C22912.5,4645.61 22916.5,4657.87 22916.5,4674.63L22916.5,4734.86L22947.6,4734.86ZM23452.9,4757.43C23453,4744.46 23463.7,4733.96 23476.9,4733.96C23490.1,4733.96 23500.9,4744.54 23500.9,4757.58L23452.9,4757.58L23452.9,4757.43ZM23409.2,4671.35L23409.2,4734.86L23431,4734.86L23431,4757.21L23383.7,4757.21L23383.7,4672.93C23383.7,4664.91 23382.5,4659.17 23380.2,4655.69C23377.9,4652.2 23374,4650.46 23368.7,4650.46C23357.3,4650.46 23344.6,4655.97 23330.4,4666.98L23330.4,4734.86L23352.8,4734.86L23352.8,4757.21L23282.5,4757.21L23282.5,4734.86L23305.3,4734.86L23305.3,4652.04L23282.5,4652.04L23282.5,4629.57L23330.4,4629.57L23330.4,4645C23346.3,4633.58 23361.2,4627.88 23375.2,4627.88C23386.8,4627.88 23395.4,4631.4 23400.9,4638.44C23406.5,4645.48 23409.2,4656.45 23409.2,4671.35ZM22856.3,4740.09C22868.8,4740.09 22880.5,4734.94 22891.5,4724.66L22891.5,4709.73C22880.4,4701.23 22869.3,4696.97 22858.2,4696.97C22851.4,4696.97 22845.6,4699.06 22840.7,4703.23C22835.8,4707.4 22833.4,4712.64 22833.4,4718.95C22833.4,4725.03 22835.5,4730.07 22839.8,4734.07C22844.1,4738.08 22849.6,4740.09 22856.3,4740.09ZM23080.8,4738.51C23088.8,4738.51 23096.1,4736.52 23102.6,4732.56C23109.1,4728.59 23114.2,4723.25 23117.8,4716.53C23121.4,4709.81 23123.2,4702.56 23123.2,4694.79C23123.2,4687.5 23121.4,4680.5 23117.8,4673.78C23114.2,4667.06 23109.2,4661.64 23102.7,4657.51C23096.3,4653.38 23089.2,4651.31 23081.3,4651.31C23073.6,4651.31 23066.5,4653.3 23060.2,4657.26C23053.9,4661.23 23048.9,4666.57 23045.4,4673.29C23041.9,4680.01 23040.1,4687.26 23040.1,4695.03C23040.1,4702.97 23041.8,4710.25 23045.1,4716.89C23048.5,4723.53 23053.3,4728.79 23059.5,4732.68C23065.7,4736.56 23072.8,4738.51 23080.8,4738.51ZM23225.6,4736.56C23233.2,4736.56 23240.1,4734.62 23246.4,4730.73C23252.8,4726.85 23257.7,4721.63 23261.2,4715.07C23264.8,4708.51 23266.5,4701.35 23266.5,4693.57C23266.5,4685.96 23264.8,4678.88 23261.2,4672.32C23257.7,4665.76 23252.8,4660.48 23246.4,4656.47C23240.1,4652.47 23233.1,4650.46 23225.3,4650.46C23217.8,4650.46 23210.8,4652.43 23204.5,4656.35C23198.2,4660.28 23193.2,4665.56 23189.6,4672.2C23186,4678.84 23184.2,4685.96 23184.2,4693.57C23184.2,4701.18 23186,4708.31 23189.6,4714.95C23193.2,4721.59 23198.2,4726.85 23204.6,4730.73C23211,4734.62 23218,4736.56 23225.6,4736.56ZM22804.8,4583.05C22804.7,4596.02 22793.9,4606.52 22780.8,4606.52C22767.5,4606.52 22756.8,4595.94 22756.8,4582.9L22804.8,4582.9L22804.8,4583.05Z" style="fill:white;fill-rule:nonzero;"/>
            </g>
        </g>
    </g>
</svg>
